<svg width="30" height="20" stroke="currentColor" viewBox="0 0 20 20" fill="none" xmlns="http://www.w3.org/2000/svg">
<path d="M10 3.125C16.25 3.125 20 10 20 10C20 10 16.25 16.875 10 16.875C3.75 16.875 0 10 0 10C0 10 3.75 3.125 10 3.125ZM10 4.375C5.6 4.375 2.4975 8.43875 1.46875 10C2.49625 11.56 5.59875 15.625 10 15.625C14.4 15.625 17.5025 11.5612 18.5312 10C17.5037 8.44 14.4012 4.375 10 4.375ZM10 5.625C11.1603 5.625 12.2731 6.08594 13.0936 6.90641C13.9141 7.72688 14.375 8.83968 14.375 10C14.375 11.1603 13.9141 12.2731 13.0936 13.0936C12.2731 13.9141 11.1603 14.375 10 14.375C8.83968 14.375 7.72688 13.9141 6.90641 13.0936C6.08594 12.2731 5.625 11.1603 5.625 10C5.625 8.83968 6.08594 7.72688 6.90641 6.90641C7.72688 6.08594 8.83968 5.625 10 5.625ZM10 6.875C9.1715 6.87599 8.37722 7.20555 7.79139 7.79139C7.20555 8.37722 6.87599 9.1715 6.875 10C6.875 11.7225 8.27625 13.125 10 13.125C11.7237 13.125 13.125 11.7225 13.125 10C13.125 8.2775 11.7237 6.875 10 6.875Z"  fill="currentColor"/>
</svg>
